<svg width="21" height="24" viewBox="0 0 21 24" fill="none" xmlns="http://www.w3.org/2000/svg">
<path d="M10.0049 16.6797C11.1896 15.2374 13.289 14.6807 15.0215 15.2949C15.085 15.3176 15.1069 15.3957 15.0664 15.4502C14.5301 16.1733 13.4083 16.7577 12.5703 17.0859C12.2003 17.2309 11.8679 17.4715 11.627 17.7959L10.4434 19.3926C9.81682 20.2381 10.0498 21.3294 10.9639 21.8311C11.8783 22.3324 13.1278 22.0534 13.7549 21.208L14.9385 19.6123C14.9754 19.5634 15.0482 19.5588 15.0869 19.6055C15.3632 19.9392 15.7145 20.2318 16.1357 20.4629C16.3639 20.5884 16.4485 20.8874 16.292 21.0986L15.501 22.167C14.2125 23.9037 11.6452 24.4764 9.7666 23.4463C7.88781 22.4155 7.40983 20.1709 8.69824 18.4336L9.88086 16.8379L10.0049 16.6797ZM11.0479 0C11.9845 0 12.8682 0.437324 13.4355 1.18262L16.9844 5.84473C17.3819 6.36701 17.5967 7.00576 17.5967 7.66211V8.98145L15.5967 8.83203V7.66211C15.5967 7.44329 15.5251 7.22978 15.3926 7.05566L11.8438 2.39453C11.6546 2.1461 11.3601 2 11.0479 2H3C2.44779 2.00009 2 2.44778 2 3V18.5498C2.00007 19.102 2.44784 19.5497 3 19.5498H5.70703L5.55078 21.5498H3L2.8457 21.5459C1.31178 21.4681 0.0816827 20.238 0.00390625 18.7041L0 18.5498V3C0 1.3432 1.34323 9.48734e-05 3 0H11.0479ZM12.4893 11.9307C13.7779 10.1938 16.345 9.62093 18.2236 10.6514C20.1021 11.6821 20.58 13.9259 19.292 15.6631L18.1094 17.2598L17.9844 17.418C17.0074 18.6074 15.4085 19.1946 13.9062 19.0195C13.508 18.9731 13.3579 18.5152 13.5977 18.1914C14.0053 17.6416 14.6858 17.2674 15.332 17.043C15.7364 16.9026 16.1029 16.6503 16.3623 16.3008L17.5469 14.7051C18.1734 13.8596 17.9395 12.7682 17.0254 12.2666C16.111 11.7652 14.8615 12.0443 14.2344 12.8896L14.1963 12.9404C13.8214 13.445 13.0744 13.4792 12.5283 13.1797C12.1846 12.9911 12.0396 12.5356 12.2754 12.2178L12.4893 11.9307ZM7.53418 15.5156C7.89103 15.5158 8.18066 15.8052 8.18066 16.1621C8.18066 16.519 7.89102 16.8084 7.53418 16.8086H4.2793C3.92232 16.8086 3.63282 16.5191 3.63281 16.1621C3.63281 15.8051 3.92232 15.5156 4.2793 15.5156H7.53418ZM9.80762 10.7744C10.1645 10.7744 10.454 11.064 10.4541 11.4209C10.4541 11.7779 10.1646 12.0674 9.80762 12.0674H4.2793C3.92232 12.0674 3.63281 11.7779 3.63281 11.4209C3.63295 11.064 3.9224 10.7744 4.2793 10.7744H9.80762ZM12.082 6.03418C12.4388 6.03444 12.7275 6.32385 12.7275 6.68066C12.7273 7.03726 12.4386 7.32591 12.082 7.32617H4.2793C3.92248 7.32617 3.63307 7.03743 3.63281 6.68066C3.63281 6.32369 3.92232 6.03418 4.2793 6.03418H12.082Z" fill="#0052CC" style="fill:#0052CC;fill:color(display-p3 0.0000 0.3216 0.8000);fill-opacity:1;"/>
</svg>
