<svg width="31" height="38" viewBox="0 0 31 38" fill="none" xmlns="http://www.w3.org/2000/svg">
<path d="M15.0625 25.6855C16.7883 23.525 19.8566 22.6926 22.4307 23.5898C22.5796 23.642 22.6316 23.8226 22.5391 23.9512C22.0073 24.6895 21.0441 25.1231 20.1357 25.1338C18.7809 25.1496 17.4319 25.7806 16.6182 26.9102L14.7217 29.541C13.4695 31.2803 13.9621 33.5419 15.8203 34.5918C17.6785 35.6412 20.2005 35.0826 21.4531 33.3438L22.4951 31.8975C22.8776 31.3665 23.6348 31.2898 24.2021 31.6104C24.5471 31.8056 24.6786 32.2578 24.4463 32.5811L23.1904 34.3252C21.2908 36.9625 17.4665 37.8097 14.6484 36.2178C11.8307 34.6255 11.0854 31.1971 12.9844 28.5596L14.8789 25.9277L15.0625 25.6855ZM16.7842 0C18.0529 0 19.2467 0.601925 20.001 1.62207L25.6113 9.21191C26.1201 9.90021 26.3955 10.7339 26.3955 11.5898V13.875L24.3955 13.7207V11.5898C24.3955 11.162 24.2581 10.7454 24.0039 10.4014L18.3926 2.81152C18.0155 2.30137 17.4186 2 16.7842 2H4C2.89543 2 2 2.89543 2 4V29.2891C2.0001 30.3935 2.89549 31.2891 4 31.2891H8.47754L8.32617 33.2891H4L3.79395 33.2832C1.74888 33.1794 0.108744 31.5402 0.00488281 29.4951L0 29.2891V4C1.13548e-06 1.79086 1.79086 1.21964e-07 4 0H16.7842ZM18.793 18.3467C20.6926 15.7094 24.5169 14.8623 27.335 16.4541C30.1526 18.0464 30.8982 21.4758 28.999 24.1133L27.1045 26.7441L26.9209 26.9854C25.5068 28.7557 23.1906 29.6358 20.9844 29.4023C20.3163 29.3313 20.0622 28.5639 20.4561 28.0176C20.696 27.6844 21.1019 27.5039 21.5107 27.5303C22.9753 27.6244 24.485 26.9859 25.3662 25.7627L27.2617 23.1309C28.5135 21.3917 28.0208 19.131 26.1631 18.0811C24.3048 17.0316 21.7829 17.5901 20.5303 19.3291L19.9424 20.1445C19.6825 20.5051 19.1774 20.577 18.792 20.3594C18.2729 20.066 18.0498 19.3797 18.3994 18.8936L18.793 18.3467ZM11.2715 23.9678C11.8229 23.9678 12.2695 24.4154 12.2695 24.9668C12.2693 25.5181 11.8228 25.9648 11.2715 25.9648H6.44727C5.89594 25.9648 5.44843 25.5181 5.44824 24.9668C5.44824 24.4154 5.89583 23.9678 6.44727 23.9678H11.2715ZM14.6826 16.6445C15.2338 16.6448 15.6805 17.0914 15.6807 17.6426C15.6807 18.1939 15.2339 18.6414 14.6826 18.6416H6.44727C5.89583 18.6416 5.44824 18.194 5.44824 17.6426C5.44842 17.0913 5.89594 16.6445 6.44727 16.6445H14.6826ZM18.0928 9.32129C18.6442 9.32129 19.0918 9.7679 19.0918 10.3193C19.0918 10.8708 18.6442 11.3174 18.0928 11.3174H6.44727C5.89583 11.3174 5.44824 10.8708 5.44824 10.3193C5.44825 9.7679 5.89583 9.32129 6.44727 9.32129H18.0928Z" fill="#F7FCFE" style="fill:#F7FCFE;fill:color(display-p3 0.9686 0.9882 0.9961);fill-opacity:1;"/>
</svg>
